<svg aria-hidden="true" style="position: absolute; width: 0; height: 0; overflow: hidden;" version="1.1" xmlns="http://www.w3.org/2000/svg" xmlns:xlink="http://www.w3.org/1999/xlink">
	<defs>
	<symbol id="icon-main-fabric" viewBox="0 0 512 512">
<path d="m209.613 60.68c-6.705-34.527-37.155-60.68-73.613-60.68h-61c-41.355 0-75 33.645-75 75v362c0 41.355 33.645 75 75 75h61 376v-451.32zm-134.613-30.68h61c24.813 0 45 20.187 45 45v302.041c-12.544-9.438-28.129-15.041-45-15.041h-61c-16.871 0-32.456 5.603-45 15.041v-302.041c0-24.813 20.187-45 45-45zm0 452c-24.813 0-45-20.187-45-45s20.187-45 45-45h61c24.813 0 45 20.187 45 45s-20.187 45-45 45zm407 0h-286.041c9.438-12.544 15.041-28.129 15.041-45v-346.32h271z"/><path d="m73.221 422h64.559v30h-64.559z"/>
	</symbol>
		<symbol id="icon-search" viewBox="0 0 32 32">
			<path d="M25.96 27.374c0.391 0.391 1.024 0.391 1.414 0s0.391-1.024 0-1.414l-1.414 1.414zM23 14c0 4.971-4.029 9-9 9v2c6.075 0 11-4.925 11-11h-2zM14 23c-4.971 0-9-4.029-9-9h-2c0 6.075 4.925 11 11 11v-2zM5 14c0-4.971 4.029-9 9-9v-2c-6.075 0-11 4.925-11 11h2zM14 5c4.971 0 9 4.029 9 9h2c0-6.075-4.925-11-11-11v2zM27.374 25.96l-5.583-5.583-1.414 1.414 5.583 5.583 1.414-1.414z">
			</path>
		</symbol>
		<symbol id="icon-accessories" viewBox="0 0 512 512">
		<path d="m512 151v-90h-61v-61h-90v61h-60v-61h-90v61h-60v-61h-90v61h-61v90h61v60h-61v90h61v60h-61v90h61v61h90v-61h60v61h90v-61h60v61h90v-61h61v-90h-61v-60h61v-90h-61v-60zm-30-60v30h-31v-30zm-181 120v-60h60v60zm-150 90h60v60h-60zm0-150h60v60h-60zm90 0h30v210h-30zm60 150h60v60h-60zm-60-271h30v31h-30zm120 61v30h-210v-30zm-331 30v-30h31v30zm61-91h30v181h-30zm-61 211h181v30h-181zm0 180v-30h31v30zm61 61v-181h30v181zm180 0h-30v-31h30zm-120-61v-30h210v30zm331-30v30h-31v-30zm-61 91h-30v-181h30zm61-211h-181v-30h181zm-91-60v-181h30v181z"/>
		</symbol>

		<symbol id="icon-sale" viewBox="0 0 24 24">
<path fill-rule="evenodd" clip-rule="evenodd" d="M18.7071 5.29289C19.0976 5.68342 19.0976 6.31658 18.7071 6.70711L6.70711 18.7071C6.31658 19.0976 5.68342 19.0976 5.29289 18.7071C4.90237 18.3166 4.90237 17.6834 5.29289 17.2929L17.2929 5.29289C17.6834 4.90237 18.3166 4.90237 18.7071 5.29289Z" fill="black"/>
<path fill-rule="evenodd" clip-rule="evenodd" d="M7.5 6C6.67157 6 6 6.67157 6 7.5C6 8.32843 6.67157 9 7.5 9C8.32843 9 9 8.32843 9 7.5C9 6.67157 8.32843 6 7.5 6ZM4 7.5C4 5.567 5.567 4 7.5 4C9.433 4 11 5.567 11 7.5C11 9.433 9.433 11 7.5 11C5.567 11 4 9.433 4 7.5Z" fill="black"/>
<path fill-rule="evenodd" clip-rule="evenodd" d="M16.5 15C15.6716 15 15 15.6716 15 16.5C15 17.3284 15.6716 18 16.5 18C17.3284 18 18 17.3284 18 16.5C18 15.6716 17.3284 15 16.5 15ZM13 16.5C13 14.567 14.567 13 16.5 13C18.433 13 20 14.567 20 16.5C20 18.433 18.433 20 16.5 20C14.567 20 13 18.433 13 16.5Z" fill="black"/>
</symbol>

<symbol  id="icon-delivery" viewBox="0 0 24 24" >
<path fill-rule="evenodd" clip-rule="evenodd" d="M7 16C6.44772 16 6 16.4477 6 17C6 17.5523 6.44772 18 7 18C7.55228 18 8 17.5523 8 17C8 16.4477 7.55228 16 7 16ZM4 17C4 15.3431 5.34315 14 7 14C8.65685 14 10 15.3431 10 17C10 18.6569 8.65685 20 7 20C5.34315 20 4 18.6569 4 17Z" fill="black"/>
<path fill-rule="evenodd" clip-rule="evenodd" d="M17 16C16.4477 16 16 16.4477 16 17C16 17.5523 16.4477 18 17 18C17.5523 18 18 17.5523 18 17C18 16.4477 17.5523 16 17 16ZM14 17C14 15.3431 15.3431 14 17 14C18.6569 14 20 15.3431 20 17C20 18.6569 18.6569 20 17 20C15.3431 20 14 18.6569 14 17Z" fill="black"/>
<path fill-rule="evenodd" clip-rule="evenodd" d="M2 7C2 6.44772 2.44772 6 3 6H14C14.3148 6 14.6111 6.14819 14.8 6.4L17.5133 10.0177C19.091 10.1283 20.7171 10.7728 21.8321 12.4453C22.1384 12.9048 22.0142 13.5257 21.5547 13.8321C21.0952 14.1384 20.4743 14.0142 20.1679 13.5547C19.4044 12.4094 18.2695 12 17 12C16.6852 12 16.3889 11.8518 16.2 11.6L13.5 8H4V13C4 13.5523 3.55228 14 3 14C2.44772 14 2 13.5523 2 13V7Z" fill="black"/>
</symbol>
	</defs>
</svg>
