<svg aria-hidden="true" style="position: absolute; width: 0; height: 0; overflow: hidden;" version="1.1" xmlns="http://www.w3.org/2000/svg" xmlns:xlink="http://www.w3.org/1999/xlink">
<defs>
<symbol id="icon-main-fabric" viewBox="0 0 512 512">
<path d="m209.613 60.68c-6.705-34.527-37.155-60.68-73.613-60.68h-61c-41.355 0-75 33.645-75 75v362c0 41.355 33.645 75 75 75h61 376v-451.32zm-134.613-30.68h61c24.813 0 45 20.187 45 45v302.041c-12.544-9.438-28.129-15.041-45-15.041h-61c-16.871 0-32.456 5.603-45 15.041v-302.041c0-24.813 20.187-45 45-45zm0 452c-24.813 0-45-20.187-45-45s20.187-45 45-45h61c24.813 0 45 20.187 45 45s-20.187 45-45 45zm407 0h-286.041c9.438-12.544 15.041-28.129 15.041-45v-346.32h271z"/><path d="m73.221 422h64.559v30h-64.559z"/>
</symbol>
<symbol id="icon-search" viewBox="0 0 32 32">
<path d="M25.96 27.374c0.391 0.391 1.024 0.391 1.414 0s0.391-1.024 0-1.414l-1.414 1.414zM23 14c0 4.971-4.029 9-9 9v2c6.075 0 11-4.925 11-11h-2zM14 23c-4.971 0-9-4.029-9-9h-2c0 6.075 4.925 11 11 11v-2zM5 14c0-4.971 4.029-9 9-9v-2c-6.075 0-11 4.925-11 11h2zM14 5c4.971 0 9 4.029 9 9h2c0-6.075-4.925-11-11-11v2zM27.374 25.96l-5.583-5.583-1.414 1.414 5.583 5.583 1.414-1.414z">
</path>
</symbol>
<symbol id="icon-accessories" viewBox="0 0 512 512">
<path d="m512 151v-90h-61v-61h-90v61h-60v-61h-90v61h-60v-61h-90v61h-61v90h61v60h-61v90h61v60h-61v90h61v61h90v-61h60v61h90v-61h60v61h90v-61h61v-90h-61v-60h61v-90h-61v-60zm-30-60v30h-31v-30zm-181 120v-60h60v60zm-150 90h60v60h-60zm0-150h60v60h-60zm90 0h30v210h-30zm60 150h60v60h-60zm-60-271h30v31h-30zm120 61v30h-210v-30zm-331 30v-30h31v30zm61-91h30v181h-30zm-61 211h181v30h-181zm0 180v-30h31v30zm61 61v-181h30v181zm180 0h-30v-31h30zm-120-61v-30h210v30zm331-30v30h-31v-30zm-61 91h-30v-181h30zm61-211h-181v-30h181zm-91-60v-181h30v181z"/>
</symbol>

<symbol id="icon-sale" viewBox="0 0 24 24">
<path fill-rule="evenodd" clip-rule="evenodd" d="M18.7071 5.29289C19.0976 5.68342 19.0976 6.31658 18.7071 6.70711L6.70711 18.7071C6.31658 19.0976 5.68342 19.0976 5.29289 18.7071C4.90237 18.3166 4.90237 17.6834 5.29289 17.2929L17.2929 5.29289C17.6834 4.90237 18.3166 4.90237 18.7071 5.29289Z" fill="black"/>
<path fill-rule="evenodd" clip-rule="evenodd" d="M7.5 6C6.67157 6 6 6.67157 6 7.5C6 8.32843 6.67157 9 7.5 9C8.32843 9 9 8.32843 9 7.5C9 6.67157 8.32843 6 7.5 6ZM4 7.5C4 5.567 5.567 4 7.5 4C9.433 4 11 5.567 11 7.5C11 9.433 9.433 11 7.5 11C5.567 11 4 9.433 4 7.5Z" fill="black"/>
<path fill-rule="evenodd" clip-rule="evenodd" d="M16.5 15C15.6716 15 15 15.6716 15 16.5C15 17.3284 15.6716 18 16.5 18C17.3284 18 18 17.3284 18 16.5C18 15.6716 17.3284 15 16.5 15ZM13 16.5C13 14.567 14.567 13 16.5 13C18.433 13 20 14.567 20 16.5C20 18.433 18.433 20 16.5 20C14.567 20 13 18.433 13 16.5Z" fill="black"/>
</symbol>

<symbol  id="icon-delivery" viewBox="0 0 24 24" >
<path fill-rule="evenodd" clip-rule="evenodd" d="M7 16C6.44772 16 6 16.4477 6 17C6 17.5523 6.44772 18 7 18C7.55228 18 8 17.5523 8 17C8 16.4477 7.55228 16 7 16ZM4 17C4 15.3431 5.34315 14 7 14C8.65685 14 10 15.3431 10 17C10 18.6569 8.65685 20 7 20C5.34315 20 4 18.6569 4 17Z" fill="black"/>
<path fill-rule="evenodd" clip-rule="evenodd" d="M17 16C16.4477 16 16 16.4477 16 17C16 17.5523 16.4477 18 17 18C17.5523 18 18 17.5523 18 17C18 16.4477 17.5523 16 17 16ZM14 17C14 15.3431 15.3431 14 17 14C18.6569 14 20 15.3431 20 17C20 18.6569 18.6569 20 17 20C15.3431 20 14 18.6569 14 17Z" fill="black"/>
<path fill-rule="evenodd" clip-rule="evenodd" d="M2 7C2 6.44772 2.44772 6 3 6H14C14.3148 6 14.6111 6.14819 14.8 6.4L17.5133 10.0177C19.091 10.1283 20.7171 10.7728 21.8321 12.4453C22.1384 12.9048 22.0142 13.5257 21.5547 13.8321C21.0952 14.1384 20.4743 14.0142 20.1679 13.5547C19.4044 12.4094 18.2695 12 17 12C16.6852 12 16.3889 11.8518 16.2 11.6L13.5 8H4V13C4 13.5523 3.55228 14 3 14C2.44772 14 2 13.5523 2 13V7Z" fill="black"/>
</symbol>

<symbol  id="icon-wholesale" viewBox="0 0 20 20" >
<g id="SVGRepo_bgCarrier" stroke-width="0"/>
<g id="SVGRepo_tracerCarrier" stroke-linecap="round" stroke-linejoin="round"/>
<g id="SVGRepo_iconCarrier">
<path fill-rule="evenodd" d="M17 3a1 1 0 10-2 0v5.392a2.5 2.5 0 00-.32-1.223l-2.184-3.892A2.5 2.5 0 0010.316 2H7.5A2.5 2.5 0 005 4.5V6H2.5A1.5 1.5 0 001 7.5v2.585A1.5 1.5 0 000 11.5V17a3 3 0 106 0h3a3 3 0 106 0v-2h4a1 1 0 100-2h-2V3zM3 10h2V8H3v2zm10-1.608V10H7V4.5a.5.5 0 01.5-.5h2.816a.5.5 0 01.436.255l2.184 3.892a.5.5 0 01.064.245zM4 17a1 1 0 11-2 0 1 1 0 012 0zm8 1a1 1 0 100-2 1 1 0 000 2z" fill="#000000"/>
</g>
</symbol>

<symbol  id="icon-boxes" viewBox="0 0 14 14" >
<g id="SVGRepo_bgCarrier" stroke-width="0"/>
<g id="SVGRepo_tracerCarrier" stroke-linecap="round" stroke-linejoin="round"/>
<g id="SVGRepo_iconCarrier">
<path d="m 12.666667,7.666665 -1.666667,0 0,2 -0.666667,-0.44375 -0.6666663,0.44375 0,-2 -1.6666667,0 c -0.1833333,0 -0.3333333,0.15 -0.3333333,0.33334 l 0,4 c 0,0.18333 0.15,0.33333 0.3333333,0.33333 l 4.666667,0 C 12.85,12.333335 13,12.183335 13,12.000005 l 0,-4 c 0,-0.18334 -0.15,-0.33334 -0.333333,-0.33334 z m -8.0000003,-1.33333 4.6666666,0 c 0.1833334,0 0.3333334,-0.15 0.3333334,-0.33333 l 0,-4 c 0,-0.18334 -0.15,-0.33334 -0.3333334,-0.33334 l -1.6666666,0 0,2 L 7,3.222915 l -0.6666667,0.44375 0,-2 -1.6666666,0 c -0.1833334,0 -0.3333334,0.15 -0.3333334,0.33334 l 0,4 c 0,0.18333 0.15,0.33333 0.3333334,0.33333 z M 6,7.666665 l -1.6666667,0 0,2 L 3.6666667,9.222915 3,9.666665 l 0,-2 -1.6666667,0 C 1.15,7.666665 1,7.816665 1,8.000005 l 0,4 c 0,0.18333 0.15,0.33333 0.3333333,0.33333 l 4.6666667,0 c 0.1833333,0 0.3333333,-0.15 0.3333333,-0.33333 l 0,-4 c 0,-0.18334 -0.15,-0.33334 -0.3333333,-0.33334 z"/>
</g>
</symbol>

<symbol  id="icon-fabric-about" viewBox="0 0 512 512" fill="#000000">
<g id="SVGRepo_bgCarrier" stroke-width="0"/>
<g id="SVGRepo_tracerCarrier" stroke-linecap="round" stroke-linejoin="round"/>
<g id="SVGRepo_iconCarrier"> <g> <g> <rect x="474.257" y="0.002" width="37.747" height="394.618"/> </g> </g> <g> <g> <path d="M189.115,0.002c24.017,21.121,40.445,50.672,44.602,83.987h1.039v310.636h206.107V0.002H189.115z"/> </g> </g> <g> <g> <path d="M201.364,189.117c-24.589,27.962-60.607,45.64-100.683,45.64S24.589,217.078,0,189.117v222.202 c0,55.516,45.166,100.683,100.683,100.683c55.516,0,100.683-45.166,100.683-100.681V189.117H201.364z"/> </g> </g> <g> <g> <path d="M100.683,0.002C45.167,0.002,0,45.168,0,100.684c0,55.516,45.166,100.681,100.683,100.681 c55.516,0,100.683-45.166,100.683-100.683C201.365,45.167,156.198,0.002,100.683,0.002z M100.683,150.771 c-27.618,0-50.087-22.469-50.087-50.087c0-27.618,22.469-50.087,50.087-50.087c27.618,0,50.087,22.469,50.087,50.087 C150.77,128.302,128.301,150.771,100.683,150.771z"/> </g> </g> <g> <g> <path d="M100.683,83.989c-9.206,0-16.696,7.49-16.696,16.696c0,9.206,7.49,16.696,16.696,16.696 c9.206,0,16.696-7.49,16.696-16.696C117.378,91.478,109.889,83.989,100.683,83.989z"/> </g> </g> </g>
</symbol>

<symbol  id="icon-wholesale" viewBox="0 0 20 20" >
<svg width="64px" height="64px" viewBox="0 0 28 28" fill="none" xmlns="http://www.w3.org/2000/svg"><g id="SVGRepo_bgCarrier" stroke-width="0"></g><g id="SVGRepo_tracerCarrier" stroke-linecap="round" stroke-linejoin="round"></g><g id="SVGRepo_iconCarrier"><path clip-rule="evenodd" d="M1.82047 1C1.36734 1 1 1.35728 1 1.79801V2.39948C1 2.84021 1.36734 3.19749 1.82047 3.19749H3.72716C4.03867 3.19749 4.3233 3.36906 4.46192 3.64038L5.4947 5.93251C5.53326 6.00798 5.56364 6.09443 5.62081 6.15194L10.057 16.4429C10.0129 16.4634 9.97056 16.4883 9.93075 16.5176C8.70163 17.4226 7.87009 18.5878 7.87001 19.7604C7.86996 20.4429 8.16289 21.0807 8.75002 21.5212C9.30752 21.9394 10.0364 22.1118 10.8189 22.1118H10.8446C10.336 22.6308 10.0238 23.3336 10.0238 24.1072C10.0238 25.7049 11.3554 27 12.998 27C14.6406 27 15.9722 25.7049 15.9722 24.1072C15.9722 23.3336 15.66 22.6308 15.1513 22.1118H19.0494C18.5408 22.6308 18.2285 23.3336 18.2285 24.1072C18.2285 25.7049 19.5601 27 21.2027 27C22.8454 27 24.177 25.7049 24.177 24.1072C24.177 23.3336 23.8647 22.6308 23.3561 22.1118H23.9718C24.425 22.1118 24.7923 21.7545 24.7923 21.3138V20.9148C24.7923 20.474 24.425 20.1167 23.9718 20.1167H10.8189C10.3192 20.1167 10.0864 20.0041 10.0028 19.9414C9.94878 19.9009 9.92119 19.8618 9.9212 19.7606C9.92122 19.4917 10.1711 18.8708 11.069 18.1827C11.1084 18.1524 11.1453 18.1194 11.1792 18.084C11.2692 18.1089 11.3635 18.1221 11.4601 18.1221H23.9235C24.4248 18.1221 24.8527 17.7696 24.9351 17.2885L26.9858 5.31837C27.09 4.71036 26.6079 4.1569 25.9742 4.1569H7.35431C7.1981 4.1569 7.05618 4.06597 6.9909 3.92405L5.84968 1.44289C5.71106 1.17157 5.42642 1 5.11492 1H1.82047ZM8.47667 6.15194C8.18952 6.15194 7.99591 6.44552 8.10899 6.70946L12.04 15.8846C12.103 16.0317 12.2476 16.1271 12.4076 16.1271H22.7173C22.9122 16.1271 23.0787 15.9867 23.1116 15.7946L24.6834 6.61948C24.7253 6.37513 24.5371 6.15194 24.2892 6.15194H8.47667ZM11.8698 24.1072C11.8698 23.5012 12.3749 23.0099 12.998 23.0099C13.621 23.0099 14.1261 23.5012 14.1261 24.1072C14.1261 24.7132 13.621 25.2045 12.998 25.2045C12.3749 25.2045 11.8698 24.7132 11.8698 24.1072ZM21.2027 23.0099C20.5797 23.0099 20.0746 23.5012 20.0746 24.1072C20.0746 24.7132 20.5797 25.2045 21.2027 25.2045C21.8258 25.2045 22.3309 24.7132 22.3309 24.1072C22.3309 23.5012 21.8258 23.0099 21.2027 23.0099Z" fill="#000000" fill-rule="evenodd"></path></g></svg>
</symbol>

<symbol  id="icon-basket" viewBox="0 0 28 28" >
<g id="SVGRepo_bgCarrier" stroke-width="0"></g><g id="SVGRepo_tracerCarrier" stroke-linecap="round" stroke-linejoin="round"></g><g id="SVGRepo_iconCarrier"><path clip-rule="evenodd" d="M1.82047 1C1.36734 1 1 1.35728 1 1.79801V2.39948C1 2.84021 1.36734 3.19749 1.82047 3.19749H3.72716C4.03867 3.19749 4.3233 3.36906 4.46192 3.64038L5.4947 5.93251C5.53326 6.00798 5.56364 6.09443 5.62081 6.15194L10.057 16.4429C10.0129 16.4634 9.97056 16.4883 9.93075 16.5176C8.70163 17.4226 7.87009 18.5878 7.87001 19.7604C7.86996 20.4429 8.16289 21.0807 8.75002 21.5212C9.30752 21.9394 10.0364 22.1118 10.8189 22.1118H10.8446C10.336 22.6308 10.0238 23.3336 10.0238 24.1072C10.0238 25.7049 11.3554 27 12.998 27C14.6406 27 15.9722 25.7049 15.9722 24.1072C15.9722 23.3336 15.66 22.6308 15.1513 22.1118H19.0494C18.5408 22.6308 18.2285 23.3336 18.2285 24.1072C18.2285 25.7049 19.5601 27 21.2027 27C22.8454 27 24.177 25.7049 24.177 24.1072C24.177 23.3336 23.8647 22.6308 23.3561 22.1118H23.9718C24.425 22.1118 24.7923 21.7545 24.7923 21.3138V20.9148C24.7923 20.474 24.425 20.1167 23.9718 20.1167H10.8189C10.3192 20.1167 10.0864 20.0041 10.0028 19.9414C9.94878 19.9009 9.92119 19.8618 9.9212 19.7606C9.92122 19.4917 10.1711 18.8708 11.069 18.1827C11.1084 18.1524 11.1453 18.1194 11.1792 18.084C11.2692 18.1089 11.3635 18.1221 11.4601 18.1221H23.9235C24.4248 18.1221 24.8527 17.7696 24.9351 17.2885L26.9858 5.31837C27.09 4.71036 26.6079 4.1569 25.9742 4.1569H7.35431C7.1981 4.1569 7.05618 4.06597 6.9909 3.92405L5.84968 1.44289C5.71106 1.17157 5.42642 1 5.11492 1H1.82047ZM8.47667 6.15194C8.18952 6.15194 7.99591 6.44552 8.10899 6.70946L12.04 15.8846C12.103 16.0317 12.2476 16.1271 12.4076 16.1271H22.7173C22.9122 16.1271 23.0787 15.9867 23.1116 15.7946L24.6834 6.61948C24.7253 6.37513 24.5371 6.15194 24.2892 6.15194H8.47667ZM11.8698 24.1072C11.8698 23.5012 12.3749 23.0099 12.998 23.0099C13.621 23.0099 14.1261 23.5012 14.1261 24.1072C14.1261 24.7132 13.621 25.2045 12.998 25.2045C12.3749 25.2045 11.8698 24.7132 11.8698 24.1072ZM21.2027 23.0099C20.5797 23.0099 20.0746 23.5012 20.0746 24.1072C20.0746 24.7132 20.5797 25.2045 21.2027 25.2045C21.8258 25.2045 22.3309 24.7132 22.3309 24.1072C22.3309 23.5012 21.8258 23.0099 21.2027 23.0099Z" fill="#000000" fill-rule="evenodd"></path></g>
</symbol>

<symbol  id="icon-favorite" viewBox="0 0 28 28" >
<g id="SVGRepo_bgCarrier" stroke-width="0"></g><g id="SVGRepo_tracerCarrier" stroke-linecap="round" stroke-linejoin="round"></g><g id="SVGRepo_iconCarrier"> <g id="favorite"> <path d="M12,23.2l-0.6-0.5C8.7,20.7,0,13.5,0,7.3C0,3.8,2.9,1,6.5,1c2.2,0,4.3,1.1,5.5,2.9l0,0l0,0C13.2,2.1,15.3,1,17.5,1 C21.1,1,24,3.8,24,7.3c0,6.3-8.7,13.4-11.4,15.5L12,23.2z M6.5,2.9C4,2.9,2,4.8,2,7.2c0,4.1,5.1,9.5,10,13.4 c4.9-3.9,10-9.3,10-13.4c0-2.4-2-4.3-4.5-4.3c-1.6,0-3,0.8-3.8,2L12,7.6L10.3,5C9.5,3.7,8.1,2.9,6.5,2.9z"></path> </g> </g>
</symbol>

<symbol id="logo" viewBox="0 0 256 195">
<path d="M195.575035,178.073401 C194.284078,183.606786 193.621665,186.976623 190.866428,190.696093 C189.029603,193.176405 186.021354,194.599844 182.956327,194.241245 C180.292732,193.930459 177.713805,192.788918 175.120934,191.790817 C145.135066,180.249899 120.935595,159.929276 96.4870973,139.982195 C90.6598599,135.227767 78.3628949,124.220763 71.3791751,118.43835 C88.3817588,106.418304 95.4202646,98.9843424 95.4202646,98.9843424 C122.818241,122.770428 154.761463,150.615658 188.098241,164.543253 C193.41049,166.76358 198.381074,166.044389 195.575035,178.073401" fill="#f96786"></path>
<path d="M161.689401,88.6736187 C153.976529,82.578428 140.486226,72.4589572 132.869977,66.5839066 C113.516576,51.6552218 92.8762023,39.1958911 69.1976965,32.0966226 C56.3727938,28.251642 54.6883735,15.3609961 64.3844981,3.97447471 C66.1466148,1.90456031 68.9018521,0.545867704 71.5634553,1.10269261 C115.664187,10.3356265 149.037821,37.35807 186.20165,71.4628482 C173.627767,78.1058988 161.689401,88.6736187 161.689401,88.6736187" fill="#f96786"></path>
<path d="M135.123175,120.680591 C162.659611,92.809463 216.124763,59.1340078 243.08744,57.8958444 C246.239128,57.7514086 249.232436,59.3272529 250.887969,62.0127626 C253.543595,66.3209339 254.402241,71.478786 255.195144,76.5509728 C255.961152,81.4518288 253.406132,85.6344903 248.758288,86.9364047 C216.546117,95.9591595 185.262319,117.896467 159.86951,138.840654 C151.328872,134.807409 135.123175,120.680591 135.123175,120.680591" fill="#cb1183"></path>
<path d="M120.092887,67.9057432 C88.4604514,94.3185681 54.1365292,125.831471 17.0304747,137.113401 C13.8977121,138.065681 10.4392218,137.279751 8.18602335,134.904031 C5.15486381,131.707518 3.99439689,128.418366 2.76519844,125.216872 C-1.52803113,114.031564 -0.310785992,110.760342 10.8037977,106.483051 C36.8938833,96.4402802 58.6020856,79.7504747 79.6050428,61.9101634 C82.7856187,59.208716 89.0939767,54.0219767 92.5733852,51.1611518 C104.07944,54.2451051 120.092887,67.9057432 120.092887,67.9057432" fill="#cb1183"></path>
<path d="M63.1035019,165.362054 C72.1750661,160.713214 86.1405136,155.226646 95.2449494,150.111626 C102.599222,156.596296 119.626708,169.513837 119.626708,169.513837 C107.279938,177.767595 87.5878599,190.056591 73.8784125,193.601743 C70.564358,194.459393 67.0451051,193.169432 64.951284,190.461012 C60.9429416,185.274272 58.6249961,179.767782 58.4257743,173.215377 C58.3261634,169.928218 60.17793,166.861198 63.1035019,165.362054" fill="#cb1183"></path>
<path d="M136.655191,20.6652763 C152.866864,10.8595798 171.107611,3.49634241 183.606786,0.821789883 C187.044358,0.0866614786 190.636327,1.58779767 192.522957,4.55421012 C196.109946,10.1931829 197.601121,15.8600467 197.234553,22.0588327 C197.054257,25.1168872 195.358879,27.8920467 192.671377,29.3593152 C184.830008,33.6415875 170.863564,36.9805447 162.836918,40.4838599 C162.836918,40.4838599 148.68221,28.5435019 136.655191,20.6652763" fill="#cb1183"></path>
<path d="M233.097463,101.67284 C254.991938,110.176623 263.068389,113.060358 247.094786,135.124171 C245.222101,137.71007 242.246724,137.727004 239.138864,136.992872 C229.176778,134.640062 211.498833,124.453852 201.713058,118.761089 C219.750599,106.282833 233.097463,101.67284 233.097463,101.67284" fill="#f96786"></path>
<path d="M25.6717198,91.7884514 C20.2648405,90.2424903 9.97802335,88.6108638 5.26742412,85.74207 C3.13774319,84.4451362 1.70533852,82.1869572 1.39953307,79.7126226 C0.62555642,73.4560623 2.23228016,67.8210739 5.28336187,62.1512218 C6.95084825,59.0543191 10.3545525,57.2623191 13.8508949,57.6498054 C24.3498833,58.816249 43.3237665,66.7502568 53.595642,71.4469105 C38.719751,85.1454008 25.6717198,91.7884514 25.6717198,91.7884514" fill="#f96786"></path>
</symbol>
<symbol id="icon-cross" viewBox="0 0 32 32">
<path stroke-linejoin="round" stroke-linecap="round" stroke-miterlimit="4" stroke-width="2" d="M25.333 6.667l-18.667 18.667M6.667 6.667l18.667 18.667"></path>
</symbol>
</defs>

<symbol id="icon-arrow" viewBox="0 0 24 24" >
<g  id="SVGRepo_bgCarrier" strokeWidth="0"></g><g id="SVGRepo_tracerCarrier" stroke-linecap="round" strokeLinejoin="round"></g><g id="SVGRepo_iconCarrier"> <path d="M6 12H18M18 12L13 7M18 12L13 17" strokeWidth="2" strokeLinecap="round" strokeLinejoin="round"></path> </g>
</symbol>

<symbol id="icon-logout" viewBox="0 0 32 32">
<path stroke-linejoin="round" stroke-linecap="round" stroke-miterlimit="4" stroke-width="2" d="M18.667 5.333h5.333c1.473 0 2.667 1.194 2.667 2.667v16c0 1.473-1.194 2.667-2.667 2.667h-5.333M4 16h16M4 16l5.333-5.333M4 16l5.333 5.333">
</path>
</symbol>

<symbol id="icon-edit" viewBox="0 0 32 32">
<path d="M6.667 20.941l-0.707-0.707c-0.188 0.187-0.293 0.442-0.293 0.707h1zM20.941 6.667l0.707-0.707c-0.391-0.391-1.024-0.391-1.414 0l0.707 0.707zM25.333 11.059l0.707 0.707c0.391-0.391 0.391-1.024 0-1.414l-0.707 0.707zM11.059 25.333v1c0.265 0 0.52-0.105 0.707-0.293l-0.707-0.707zM6.667 25.333h-1c0 0.552 0.448 1 1 1v-1zM15.451 24.333c-0.552 0-1 0.448-1 1s0.448 1 1 1v-2zM24.784 26.333c0.552 0 1-0.448 1-1s-0.448-1-1-1v2zM7.374 21.648l14.274-14.274-1.414-1.414-14.275 14.275 1.414 1.414zM20.234 7.374l4.392 4.392 1.414-1.414-4.392-4.392-1.414 1.414zM24.626 10.352l-14.275 14.275 1.414 1.414 14.274-14.274-1.414-1.414zM11.059 24.333h-4.392v2h4.392v-2zM7.667 25.333v-4.392h-2v4.392h2zM16.94 10.668l4.392 4.392 1.414-1.414-4.392-4.392-1.414 1.414zM15.451 26.333h9.333v-2h-9.333v2z">
</path>
</symbol>

<symbol id="icon-check" viewBox="0 0 32 32">
<path stroke-linejoin="round" stroke-linecap="round" stroke-miterlimit="4" stroke-width="2" d="M26.667 9.333l-14.667 14.667-6.667-6.667">
</path>
</symbol>


<symbol viewBox="-0.5 0.5 42 42" id="icon-favorite-product"  stroke-width="3">

<g id="SVGRepo_bgCarrier" strokeWidth="0"></g><g id="SVGRepo_tracerCarrier" stroke-linecap="round" stroke-linejoin="round"></g><g id="SVGRepo_iconCarrier"> <path d="M20.938,10.725C14.51,0.796,1.5,6.205,1.5,17.021c0,8.122,17.836,20.827,19.438,22.479 C22.551,37.848,39.5,25.143,39.5,17.021C39.5,6.287,27.378,0.796,20.938,10.725z"></path> </g>


</symbol>


<symbol  id="icon-clip" viewBox="0 0 512 512" xml:space="preserve"><g id="SVGRepo_bgCarrier" stroke-width="0"></g><g id="SVGRepo_tracerCarrier" stroke-linecap="round" stroke-linejoin="round"></g><g id="SVGRepo_iconCarrier"> <style type="text/css"> </style> <g> <path class="st0" d="M157.644,298.25l150.407-150.415l-27-26.992l-150.4,150.399c-9.162,9.155-16.08,19.809-20.684,31.163 c-6.903,17.024-8.615,35.585-5.175,53.378c3.44,17.785,12.116,34.877,25.859,48.614c9.148,9.163,19.809,16.088,31.156,20.684 c17.031,6.895,35.585,8.615,53.377,5.167c17.793-3.432,34.878-12.108,48.614-25.852l184.454-184.454 c12.55-12.542,22.016-27.107,28.302-42.632c9.445-23.287,11.796-48.72,7.077-73.065c-4.695-24.345-16.552-47.692-35.371-66.513 c-12.542-12.549-27.115-22.001-42.632-28.302c-23.295-9.436-48.705-11.78-73.057-7.077c-24.352,4.703-47.7,16.56-66.513,35.387 L74.518,229.271c-16.134,16.134-28.294,34.855-36.376,54.801c-12.139,29.93-15.16,62.608-9.11,93.932 c6.058,31.292,21.27,61.284,45.486,85.484c16.126,16.133,34.847,28.295,54.8,36.384c29.923,12.131,62.609,15.16,93.917,9.094 c31.3-6.05,61.292-21.262,85.5-45.478L466.22,305.996l-26.994-26.993L281.734,436.495c-12.48,12.481-26.818,21.781-42.152,27.99 c-22.975,9.33-48.203,11.674-72.311,7.002c-24.117-4.688-47.039-16.286-65.752-34.992c-12.489-12.48-21.781-26.818-28.006-42.16 c-9.323-22.968-11.659-48.203-6.993-72.312c4.68-24.109,16.285-47.038,34.999-65.752L293.051,64.74 c8.888-8.889,19.078-15.502,29.984-19.924c16.339-6.629,34.299-8.295,51.452-4.977c17.16,3.334,33.439,11.575,46.772,24.885 c8.889,8.896,15.486,19.086,19.908,29.984c6.636,16.338,8.303,34.306,4.985,51.46c-3.334,17.153-11.576,33.439-24.893,46.772 L236.797,377.395c-5.502,5.494-11.78,9.566-18.5,12.298c-10.083,4.094-21.186,5.129-31.78,3.074 c-10.601-2.07-20.616-7.138-28.873-15.372c-5.502-5.502-9.566-11.781-12.29-18.508c-4.094-10.076-5.137-21.187-3.075-31.78 C144.349,316.506,149.402,306.491,157.644,298.25z"></path> </g> </g></symbol>



</svg>


